<svg width="28" height="28" viewBox="0 0 28 28" fill="none" xmlns="http://www.w3.org/2000/svg">
<path fill-rule="evenodd" clip-rule="evenodd" d="M8.55984 0.666748H19.4532C24.1598 0.666748 27.3332 3.69475 27.3332 8.21341V19.7734C27.3332 24.2934 24.1598 27.3334 19.4532 27.3334H8.55984C3.83984 27.3334 0.666504 24.2934 0.666504 19.7734V8.21341C0.666504 3.69475 3.83984 0.666748 8.55984 0.666748ZM10.9732 15.0001H19.4398C19.9998 15.0001 20.4398 14.5467 20.4398 14.0001C20.4398 13.4401 19.9998 13.0001 19.4398 13.0001H10.9732L14.2798 9.70675C14.4665 9.52008 14.5732 9.25341 14.5732 9.00008C14.5732 8.74808 14.4665 8.49341 14.2798 8.29341C13.8932 7.90675 13.2532 7.90675 12.8665 8.29341L7.83984 13.2934C7.4665 13.6667 7.4665 14.3334 7.83984 14.7067L12.8665 19.7067C13.2532 20.0934 13.8932 20.0934 14.2798 19.7067C14.6665 19.3067 14.6665 18.6801 14.2798 18.2801L10.9732 15.0001Z" fill="#3359DF"/>
</svg>
