<svg width="41" height="19" viewBox="0 0 41 19" fill="none" xmlns="http://www.w3.org/2000/svg">
<path d="M2.78 14C3.1 14 3.28 13.8 3.28 13.48V0.58C3.28 0.24 3.1 0.0599995 2.78 0.0599995H0.6C0.28 0.0599995 0.1 0.24 0.1 0.58V13.48C0.1 13.82 0.28 14 0.6 14H2.78ZM10.3911 14.2C13.5311 14.2 15.7911 12.02 15.7911 9.02C15.7911 6.04 13.5311 3.86 10.3911 3.86C7.25109 3.86 4.97109 6.04 4.97109 9.02C4.97109 12.02 7.25109 14.2 10.3911 14.2ZM10.3911 11.42C9.13109 11.42 8.23109 10.42 8.23109 9.02C8.23109 7.64 9.13109 6.64 10.3911 6.64C11.6311 6.64 12.5311 7.64 12.5311 9.02C12.5311 10.42 11.6311 11.42 10.3911 11.42ZM25.0628 4.06C24.7828 4.06 24.5428 4.3 24.5428 4.58V5.26C23.7628 4.38 22.6628 3.86 21.3628 3.86C18.8228 3.86 16.9828 5.88 16.9828 8.66C16.9828 11.48 18.8228 13.48 21.3628 13.48C22.6628 13.48 23.7628 12.96 24.5428 12.08V13.52C24.5428 14.76 23.6428 15.66 22.4028 15.66C21.5628 15.66 20.8028 15.24 20.5028 14.6C20.4228 14.44 20.3028 14.32 20.0628 14.32L18.1228 14.3C17.7628 14.3 17.4828 14.58 17.5828 14.94C18.1828 16.88 20.1428 18.2 22.5428 18.2C25.5628 18.2 27.7428 16.14 27.7428 13.32V4.58C27.7428 4.3 27.5028 4.06 27.2028 4.06H25.0628ZM22.4028 11.06C21.1628 11.06 20.2428 10.06 20.2428 8.68C20.2428 7.28 21.1628 6.28 22.4028 6.28C23.6428 6.28 24.5428 7.28 24.5428 8.68C24.5428 10.06 23.6428 11.06 22.4028 11.06ZM34.8442 14.2C37.9842 14.2 40.2442 12.02 40.2442 9.02C40.2442 6.04 37.9842 3.86 34.8442 3.86C31.7042 3.86 29.4242 6.04 29.4242 9.02C29.4242 12.02 31.7042 14.2 34.8442 14.2ZM34.8442 11.42C33.5842 11.42 32.6842 10.42 32.6842 9.02C32.6842 7.64 33.5842 6.64 34.8442 6.64C36.0842 6.64 36.9842 7.64 36.9842 9.02C36.9842 10.42 36.0842 11.42 34.8442 11.42Z" fill="#2E2E2E"/>
</svg>
