<svg width="12" height="12" viewBox="0 0 12 12" fill="none" xmlns="http://www.w3.org/2000/svg">
<path fill-rule="evenodd" clip-rule="evenodd" d="M5.11119 5.11119V1.55564C5.11119 1.06472 5.50916 0.666748 6.00008 0.666748C6.491 0.666748 6.88897 1.06472 6.88897 1.55564V5.11119H10.4445C10.9354 5.11119 11.3334 5.50916 11.3334 6.00008C11.3334 6.491 10.9354 6.88897 10.4445 6.88897H6.88897V10.4445C6.88897 10.9354 6.491 11.3334 6.00008 11.3334C5.50916 11.3334 5.11119 10.9354 5.11119 10.4445V6.88897H1.55564C1.06472 6.88897 0.666748 6.491 0.666748 6.00008C0.666748 5.50916 1.06472 5.11119 1.55564 5.11119H5.11119Z" fill="white"/>
</svg>
